<svg width="224" height="108" viewBox="0 0 224 108" fill="none" xmlns="http://www.w3.org/2000/svg">
<path d="M90.4923 81.893C86.6742 81.893 83.2736 81.2368 80.2907 79.9243C77.3248 78.5947 74.981 76.7709 73.2594 74.4527C71.5549 72.1175 70.6771 69.4243 70.6259 66.3732H81.7736C81.8418 67.6516 82.2594 68.7766 83.0264 69.7482C83.8105 70.7027 84.8503 71.4442 86.1458 71.9726C87.4412 72.501 88.8986 72.7652 90.5179 72.7652C92.2054 72.7652 93.6969 72.4669 94.9923 71.8703C96.2878 71.2737 97.302 70.447 98.0349 69.3902C98.7679 68.3334 99.1343 67.1147 99.1343 65.734C99.1343 64.3363 98.7423 63.1005 97.9582 62.0266C97.1912 60.9357 96.0832 60.0834 94.6344 59.4698C93.2025 58.8562 91.498 58.5494 89.5207 58.5494H84.6372V50.4187H89.5207C91.1912 50.4187 92.6656 50.1289 93.944 49.5494C95.2395 48.9699 96.2451 48.1687 96.9611 47.146C97.677 46.1062 98.0349 44.896 98.0349 43.5153C98.0349 42.2028 97.7196 41.0523 97.0889 40.0636C96.4753 39.058 95.6059 38.2739 94.481 37.7114C93.373 37.1489 92.0776 36.8676 90.5946 36.8676C89.0946 36.8676 87.7225 37.1404 86.4781 37.6858C85.2338 38.2142 84.2367 38.9727 83.4867 39.9614C82.7367 40.95 82.3361 42.1091 82.285 43.4386H71.6742C71.7254 40.4216 72.5861 37.7625 74.2566 35.4614C75.927 33.1603 78.177 31.362 81.0066 30.0665C83.8532 28.754 87.0662 28.0978 90.6457 28.0978C94.2594 28.0978 97.4213 28.754 100.131 30.0665C102.842 31.379 104.947 33.1517 106.447 35.3847C107.964 37.6006 108.714 40.0892 108.697 42.8506C108.714 45.7824 107.802 48.2284 105.961 50.1886C104.137 52.1488 101.759 53.3931 98.8275 53.9215V54.3306C102.68 54.8249 105.612 56.163 107.623 58.3448C109.651 60.5096 110.657 63.2198 110.64 66.4755C110.657 69.4584 109.796 72.109 108.058 74.4271C106.336 76.7453 103.958 78.5692 100.924 79.8987C97.89 81.2283 94.4128 81.893 90.4923 81.893ZM120.792 81.1771L142.499 38.2227V37.8648H117.213V28.8137H153.954V37.9926L132.221 81.1771H120.792Z" fill="#101828"/>
</svg>
