<svg width="393" height="852" viewBox="0 0 393 852" fill="none" xmlns="http://www.w3.org/2000/svg">
<rect width="393" height="852" fill="white"/>
<rect width="393" height="852" fill="url(#paint0_linear_0_3)"/>
<g filter="url(#filter0_dd_0_3)">
<path d="M36.5023 256.021C36.5023 247.184 43.6658 240.021 52.5023 240.021H340.498C349.334 240.021 356.498 247.184 356.498 256.021V595.979C356.498 604.816 349.334 611.979 340.498 611.979H52.5023C43.6658 611.979 36.5023 604.816 36.5023 595.979V256.021Z" fill="white" shape-rendering="crispEdges"/>
<path d="M179.774 297.023H188.35V298.207H179.774V297.023ZM183.534 291.599H184.734V306.271H183.534V291.599ZM174.19 296.399H179.182V297.343H174.19V296.399ZM174.27 292.111H179.198V293.071H174.27V292.111ZM174.19 298.527H179.182V299.487H174.19V298.527ZM173.422 294.207H179.79V295.215H173.422V294.207ZM174.75 300.687H179.134V305.359H174.75V304.367H178.062V301.695H174.75V300.687ZM174.158 300.687H175.23V306.095H174.158V300.687ZM198.693 294.527H203.861V295.631H198.693V294.527ZM199.029 291.551L200.197 291.727C200.048 292.74 199.856 293.727 199.621 294.687C199.397 295.647 199.131 296.548 198.821 297.391C198.512 298.233 198.16 298.969 197.765 299.599C197.701 299.535 197.616 299.449 197.509 299.343C197.403 299.236 197.291 299.135 197.173 299.039C197.056 298.932 196.949 298.847 196.853 298.783C197.227 298.196 197.552 297.519 197.829 296.751C198.107 295.972 198.341 295.14 198.533 294.255C198.736 293.369 198.901 292.468 199.029 291.551ZM201.861 295.119L202.997 295.215C202.773 296.985 202.448 298.569 202.021 299.967C201.605 301.353 201.029 302.575 200.293 303.631C199.557 304.676 198.613 305.567 197.461 306.303C197.419 306.228 197.355 306.127 197.269 305.999C197.195 305.871 197.109 305.743 197.013 305.615C196.928 305.497 196.848 305.401 196.773 305.327C197.861 304.676 198.741 303.871 199.413 302.911C200.096 301.94 200.624 300.804 200.997 299.503C201.381 298.201 201.669 296.74 201.861 295.119ZM199.285 295.535C199.499 296.996 199.797 298.372 200.181 299.663C200.565 300.943 201.061 302.073 201.669 303.055C202.288 304.036 203.045 304.799 203.941 305.343C203.856 305.417 203.76 305.508 203.653 305.615C203.547 305.721 203.445 305.833 203.349 305.951C203.264 306.068 203.189 306.18 203.125 306.287C202.176 305.668 201.381 304.836 200.741 303.791C200.112 302.735 199.6 301.519 199.205 300.143C198.811 298.767 198.496 297.279 198.261 295.679L199.285 295.535ZM192.853 291.551H193.909V299.951H192.853V291.551ZM191.253 293.375V296.047H195.621V293.375H191.253ZM190.245 292.527H196.693V296.879H190.245V292.527ZM190.869 298.431V299.487H196.005V298.431H190.869ZM189.845 297.615H197.061V300.287H189.845V297.615ZM189.157 301.311C189.872 301.311 190.704 301.305 191.653 301.295C192.603 301.284 193.611 301.273 194.677 301.263C195.755 301.241 196.832 301.225 197.909 301.215L197.877 302.111C196.811 302.132 195.749 302.159 194.693 302.191C193.637 302.212 192.635 302.228 191.685 302.239C190.747 302.249 189.915 302.26 189.189 302.271L189.157 301.311ZM192.341 300.031L193.365 300.271C193.152 300.697 192.912 301.151 192.645 301.631C192.389 302.111 192.128 302.575 191.861 303.023C191.605 303.471 191.371 303.871 191.157 304.223L190.165 303.935C190.389 303.583 190.629 303.183 190.885 302.735C191.141 302.287 191.397 301.828 191.653 301.359C191.909 300.889 192.139 300.447 192.341 300.031ZM191.061 303.631L191.669 302.911C192.288 303.124 192.907 303.364 193.525 303.631C194.144 303.887 194.725 304.159 195.269 304.447C195.813 304.724 196.277 304.991 196.661 305.247L195.893 306.015C195.531 305.748 195.088 305.476 194.565 305.199C194.053 304.921 193.499 304.649 192.901 304.383C192.304 304.105 191.691 303.855 191.061 303.631ZM195.237 301.695L196.261 301.871C196.059 302.745 195.696 303.476 195.173 304.063C194.651 304.639 193.963 305.108 193.109 305.471C192.256 305.833 191.221 306.121 190.005 306.335C189.973 306.175 189.909 306.004 189.813 305.823C189.728 305.652 189.637 305.503 189.541 305.375C190.64 305.247 191.579 305.039 192.357 304.751C193.136 304.452 193.76 304.057 194.229 303.567C194.699 303.065 195.035 302.441 195.237 301.695ZM189.141 294.239H190.661V294.287H196.181V294.239H197.829V295.151H196.181V295.103H190.661V295.151H189.141V294.239ZM207.229 293.231V295.695H210.173V293.231H207.229ZM206.125 292.255H211.325V296.671H206.125V292.255ZM214.189 293.231V295.695H217.165V293.231H214.189ZM213.085 292.255H218.317V296.671H213.085V292.255ZM205.021 297.887H219.373V298.975H205.021V297.887ZM206.909 304.671H210.813V305.695H206.909V304.671ZM213.501 304.671H217.421V305.695H213.501V304.671ZM214.205 298.191C214.578 298.671 215.058 299.124 215.645 299.551C216.232 299.977 216.888 300.356 217.613 300.687C218.349 301.007 219.09 301.257 219.837 301.439C219.752 301.513 219.661 301.609 219.565 301.727C219.469 301.833 219.378 301.951 219.293 302.079C219.208 302.196 219.133 302.303 219.069 302.399C218.29 302.175 217.528 301.881 216.781 301.519C216.034 301.145 215.346 300.713 214.717 300.223C214.088 299.721 213.554 299.183 213.117 298.607L214.205 298.191ZM206.365 301.087H211.421V306.255H210.317V302.111H207.437V306.303H206.365V301.087ZM212.925 301.087H218.045V306.255H216.925V302.111H213.997V306.303H212.925V301.087ZM211.405 296.239L212.573 296.607C211.944 297.993 211 299.161 209.741 300.111C208.493 301.06 207.032 301.828 205.357 302.415C205.314 302.329 205.25 302.233 205.165 302.127C205.08 302.009 204.989 301.892 204.893 301.775C204.797 301.657 204.706 301.567 204.621 301.503C206.232 300.969 207.629 300.265 208.813 299.391C210.008 298.516 210.872 297.465 211.405 296.239Z" fill="#364153"/>
<path d="M174.992 425.891C171.174 425.891 167.773 425.235 164.791 423.922C161.825 422.593 159.481 420.769 157.759 418.451C156.055 416.116 155.177 413.422 155.126 410.371H166.273C166.342 411.65 166.759 412.775 167.526 413.746C168.31 414.701 169.35 415.442 170.646 415.971C171.941 416.499 173.398 416.763 175.018 416.763C176.705 416.763 178.197 416.465 179.492 415.868C180.788 415.272 181.802 414.445 182.535 413.388C183.268 412.332 183.634 411.113 183.634 409.732C183.634 408.334 183.242 407.099 182.458 406.025C181.691 404.934 180.583 404.082 179.134 403.468C177.702 402.854 175.998 402.547 174.021 402.547H169.137V394.417H174.021C175.691 394.417 177.166 394.127 178.444 393.547C179.739 392.968 180.745 392.167 181.461 391.144C182.177 390.104 182.535 388.894 182.535 387.513C182.535 386.201 182.22 385.05 181.589 384.062C180.975 383.056 180.106 382.272 178.981 381.709C177.873 381.147 176.577 380.866 175.095 380.866C173.595 380.866 172.222 381.138 170.978 381.684C169.734 382.212 168.737 382.971 167.987 383.959C167.237 384.948 166.836 386.107 166.785 387.437H156.174C156.225 384.42 157.086 381.761 158.756 379.459C160.427 377.158 162.677 375.36 165.506 374.064C168.353 372.752 171.566 372.096 175.146 372.096C178.759 372.096 181.921 372.752 184.631 374.064C187.342 375.377 189.447 377.15 190.947 379.383C192.464 381.599 193.214 384.087 193.197 386.849C193.214 389.78 192.302 392.226 190.461 394.187C188.637 396.147 186.259 397.391 183.327 397.92V398.329C187.18 398.823 190.112 400.161 192.123 402.343C194.151 404.508 195.157 407.218 195.14 410.474C195.157 413.457 194.296 416.107 192.558 418.425C190.836 420.743 188.458 422.567 185.424 423.897C182.39 425.226 178.913 425.891 174.992 425.891ZM205.292 425.175L227 382.221V381.863H201.713V372.812H238.454V381.991L216.721 425.175H205.292Z" fill="#101828"/>
<g filter="url(#filter1_dd_0_3)">
<path d="M164.498 531.985C164.498 514.314 178.824 499.989 196.495 499.989C214.166 499.989 228.491 514.314 228.491 531.985C228.491 549.657 214.166 563.982 196.495 563.982C178.824 563.982 164.498 549.657 164.498 531.985Z" fill="#030213" shape-rendering="crispEdges"/>
<path d="M191.829 531.985H201.16" stroke="white" stroke-width="1.33297" stroke-linecap="round" stroke-linejoin="round"/>
<path d="M196.495 527.32V536.651" stroke="white" stroke-width="1.33297" stroke-linecap="round" stroke-linejoin="round"/>
</g>
</g>
<defs>
<filter id="filter0_dd_0_3" x="16.5023" y="240.021" width="359.995" height="411.958" filterUnits="userSpaceOnUse" color-interpolation-filters="sRGB">
<feFlood flood-opacity="0" result="BackgroundImageFix"/>
<feColorMatrix in="SourceAlpha" type="matrix" values="0 0 0 0 0 0 0 0 0 0 0 0 0 0 0 0 0 0 127 0" result="hardAlpha"/>
<feMorphology radius="6" operator="erode" in="SourceAlpha" result="effect1_dropShadow_0_3"/>
<feOffset dy="8"/>
<feGaussianBlur stdDeviation="5"/>
<feComposite in2="hardAlpha" operator="out"/>
<feColorMatrix type="matrix" values="0 0 0 0 0 0 0 0 0 0 0 0 0 0 0 0 0 0 0.1 0"/>
<feBlend mode="normal" in2="BackgroundImageFix" result="effect1_dropShadow_0_3"/>
<feColorMatrix in="SourceAlpha" type="matrix" values="0 0 0 0 0 0 0 0 0 0 0 0 0 0 0 0 0 0 127 0" result="hardAlpha"/>
<feMorphology radius="5" operator="erode" in="SourceAlpha" result="effect2_dropShadow_0_3"/>
<feOffset dy="20"/>
<feGaussianBlur stdDeviation="12.5"/>
<feComposite in2="hardAlpha" operator="out"/>
<feColorMatrix type="matrix" values="0 0 0 0 0 0 0 0 0 0 0 0 0 0 0 0 0 0 0.1 0"/>
<feBlend mode="normal" in2="effect1_dropShadow_0_3" result="effect2_dropShadow_0_3"/>
<feBlend mode="normal" in="SourceGraphic" in2="effect2_dropShadow_0_3" result="shape"/>
</filter>
<filter id="filter1_dd_0_3" x="152.498" y="497.989" width="87.9929" height="87.9929" filterUnits="userSpaceOnUse" color-interpolation-filters="sRGB">
<feFlood flood-opacity="0" result="BackgroundImageFix"/>
<feColorMatrix in="SourceAlpha" type="matrix" values="0 0 0 0 0 0 0 0 0 0 0 0 0 0 0 0 0 0 127 0" result="hardAlpha"/>
<feMorphology radius="4" operator="erode" in="SourceAlpha" result="effect1_dropShadow_0_3"/>
<feOffset dy="4"/>
<feGaussianBlur stdDeviation="3"/>
<feComposite in2="hardAlpha" operator="out"/>
<feColorMatrix type="matrix" values="0 0 0 0 0 0 0 0 0 0 0 0 0 0 0 0 0 0 0.1 0"/>
<feBlend mode="normal" in2="BackgroundImageFix" result="effect1_dropShadow_0_3"/>
<feColorMatrix in="SourceAlpha" type="matrix" values="0 0 0 0 0 0 0 0 0 0 0 0 0 0 0 0 0 0 127 0" result="hardAlpha"/>
<feMorphology radius="3" operator="erode" in="SourceAlpha" result="effect2_dropShadow_0_3"/>
<feOffset dy="10"/>
<feGaussianBlur stdDeviation="7.5"/>
<feComposite in2="hardAlpha" operator="out"/>
<feColorMatrix type="matrix" values="0 0 0 0 0 0 0 0 0 0 0 0 0 0 0 0 0 0 0.1 0"/>
<feBlend mode="normal" in2="effect1_dropShadow_0_3" result="effect2_dropShadow_0_3"/>
<feBlend mode="normal" in="SourceGraphic" in2="effect2_dropShadow_0_3" result="shape"/>
</filter>
<linearGradient id="paint0_linear_0_3" x1="0" y1="0" x2="648.104" y2="298.95" gradientUnits="userSpaceOnUse">
<stop stop-color="#EFF6FF"/>
<stop offset="1" stop-color="#E0E7FF"/>
</linearGradient>
</defs>
</svg>
