<svg width="224" height="24" viewBox="0 0 224 24" fill="none" xmlns="http://www.w3.org/2000/svg">
<path d="M95.2739 9.00447H103.85V10.1885H95.2739V9.00447ZM99.0339 3.58049H100.234V18.2524H99.0339V3.58049ZM89.69 8.38047H94.6819V9.32447H89.69V8.38047ZM89.77 4.09249H94.6979V5.05248H89.77V4.09249ZM89.69 10.5085H94.6819V11.4685H89.69V10.5085ZM88.922 6.18848H95.2899V7.19648H88.922V6.18848ZM90.25 12.6685H94.6339V17.3404H90.25V16.3484H93.562V13.6765H90.25V12.6685ZM89.658 12.6685H90.73V18.0764H89.658V12.6685ZM114.193 6.50848H119.361V7.61247H114.193V6.50848ZM114.529 3.53249L115.697 3.70849C115.548 4.72182 115.356 5.70848 115.121 6.66848C114.897 7.62847 114.631 8.5298 114.321 9.37247C114.012 10.2151 113.66 10.9511 113.265 11.5805C113.201 11.5165 113.116 11.4311 113.009 11.3245C112.903 11.2178 112.791 11.1165 112.673 11.0205C112.556 10.9138 112.449 10.8285 112.353 10.7645C112.727 10.1778 113.052 9.50047 113.329 8.73247C113.607 7.95381 113.841 7.12181 114.033 6.23648C114.236 5.35115 114.401 4.44982 114.529 3.53249ZM117.361 7.10048L118.497 7.19648C118.273 8.96714 117.948 10.5511 117.521 11.9485C117.105 13.3351 116.529 14.5564 115.793 15.6124C115.057 16.6578 114.113 17.5484 112.961 18.2844C112.919 18.2098 112.855 18.1084 112.769 17.9804C112.695 17.8524 112.609 17.7244 112.513 17.5964C112.428 17.4791 112.348 17.3831 112.273 17.3084C113.361 16.6578 114.241 15.8524 114.913 14.8924C115.596 13.9218 116.124 12.7858 116.497 11.4845C116.881 10.1831 117.169 8.7218 117.361 7.10048ZM114.785 7.51647C114.999 8.9778 115.297 10.3538 115.681 11.6445C116.065 12.9245 116.561 14.0551 117.169 15.0364C117.788 16.0178 118.545 16.7804 119.441 17.3244C119.356 17.3991 119.26 17.4898 119.153 17.5964C119.047 17.7031 118.945 17.8151 118.849 17.9324C118.764 18.0498 118.689 18.1618 118.625 18.2684C117.676 17.6498 116.881 16.8178 116.241 15.7724C115.612 14.7164 115.1 13.5005 114.705 12.1245C114.311 10.7485 113.996 9.26047 113.761 7.66047L114.785 7.51647ZM108.353 3.53249H109.409V11.9325H108.353V3.53249ZM106.753 5.35648V8.02847H111.121V5.35648H106.753ZM105.745 4.50849H112.193V8.86047H105.745V4.50849ZM106.369 10.4125V11.4685H111.505V10.4125H106.369ZM105.345 9.59647H112.561V12.2685H105.345V9.59647ZM104.657 13.2925C105.372 13.2925 106.204 13.2871 107.153 13.2765C108.103 13.2658 109.111 13.2551 110.177 13.2445C111.255 13.2231 112.332 13.2071 113.409 13.1965L113.377 14.0924C112.311 14.1138 111.249 14.1404 110.193 14.1724C109.137 14.1938 108.135 14.2098 107.185 14.2204C106.247 14.2311 105.415 14.2418 104.689 14.2524L104.657 13.2925ZM107.841 12.0125L108.865 12.2525C108.652 12.6791 108.412 13.1325 108.145 13.6125C107.889 14.0924 107.628 14.5564 107.361 15.0044C107.105 15.4524 106.871 15.8524 106.657 16.2044L105.665 15.9164C105.889 15.5644 106.129 15.1644 106.385 14.7164C106.641 14.2684 106.897 13.8098 107.153 13.3405C107.409 12.8711 107.639 12.4285 107.841 12.0125ZM106.561 15.6124L107.169 14.8924C107.788 15.1058 108.407 15.3458 109.025 15.6124C109.644 15.8684 110.225 16.1404 110.769 16.4284C111.313 16.7058 111.777 16.9724 112.161 17.2284L111.393 17.9964C111.031 17.7298 110.588 17.4578 110.065 17.1804C109.553 16.9031 108.999 16.6311 108.401 16.3644C107.804 16.0871 107.191 15.8364 106.561 15.6124ZM110.737 13.6765L111.761 13.8525C111.559 14.7271 111.196 15.4578 110.673 16.0444C110.151 16.6204 109.463 17.0898 108.609 17.4524C107.756 17.8151 106.721 18.1031 105.505 18.3164C105.473 18.1564 105.409 17.9858 105.313 17.8044C105.228 17.6338 105.137 17.4844 105.041 17.3564C106.14 17.2284 107.079 17.0204 107.857 16.7324C108.636 16.4338 109.26 16.0391 109.729 15.5484C110.199 15.0471 110.535 14.4231 110.737 13.6765ZM104.641 6.22048H106.161V6.26848H111.681V6.22048H113.329V7.13248H111.681V7.08448H106.161V7.13248H104.641V6.22048ZM122.729 5.21248V7.67647H125.673V5.21248H122.729ZM121.625 4.23649H126.825V8.65247H121.625V4.23649ZM129.689 5.21248V7.67647H132.665V5.21248H129.689ZM128.585 4.23649H133.817V8.65247H128.585V4.23649ZM120.521 9.86847H134.873V10.9565H120.521V9.86847ZM122.409 16.6524H126.313V17.6764H122.409V16.6524ZM129.001 16.6524H132.921V17.6764H129.001V16.6524ZM129.705 10.1725C130.078 10.6525 130.558 11.1058 131.145 11.5325C131.731 11.9591 132.387 12.3378 133.113 12.6685C133.849 12.9885 134.59 13.2391 135.337 13.4205C135.251 13.4951 135.161 13.5911 135.065 13.7085C134.969 13.8151 134.878 13.9325 134.793 14.0604C134.707 14.1778 134.633 14.2844 134.569 14.3804C133.79 14.1564 133.027 13.8631 132.281 13.5005C131.534 13.1271 130.846 12.6951 130.217 12.2045C129.587 11.7031 129.054 11.1645 128.617 10.5885L129.705 10.1725ZM121.865 13.0685H126.921V18.2364H125.817V14.0924H122.937V18.2844H121.865V13.0685ZM128.425 13.0685H133.545V18.2364H132.425V14.0924H129.497V18.2844H128.425V13.0685ZM126.905 8.22047L128.073 8.58847C127.443 9.97513 126.499 11.1431 125.241 12.0925C123.993 13.0418 122.532 13.8098 120.857 14.3964C120.814 14.3111 120.75 14.2151 120.665 14.1084C120.58 13.9911 120.489 13.8738 120.393 13.7565C120.297 13.6391 120.206 13.5485 120.121 13.4845C121.732 12.9511 123.129 12.2471 124.313 11.3725C125.507 10.4978 126.371 9.44713 126.905 8.22047Z" fill="#364153"/>
</svg>
